# xmcd CD database file
#
# Track frame offsets:
#	150
#	13445
#	25868
#	42488
#	54605
#	71230
#	88025
#	103330
#	117403
#	134868
#	163215
#	175945
#
# Disc length: 2486 seconds
#
# Revision: 1
# Processed by: cddbd v1.5.1PL0 Copyright (c) Steve Scherf et al.
# Submitted via: CDex 1.51
#
DISCID=bc09b40c
DTITLE=CLOUDBERRY JAM - Movin' On Up
DYEAR=2004
DGENRE=Rock
TTITLE0=Your Love
TTITLE1=If You Leave Me Now
TTITLE2=My Everything
TTITLE3=Let The Man
TTITLE4=When Tomorrow Comes
TTITLE5=No Matter Why, No Matter What
TTITLE6=Ain't Gonna
TTITLE7=Simple Sweet Mistake
TTITLE8=Can I Stay
TTITLE9=People Are Starting To Care
TTITLE10=Waiting For Someone
TTITLE11=Simple Sweet Saxophone
EXTD=YEAR: 2004
EXTT0=
EXTT1=
EXTT2=
EXTT3=
EXTT4=
EXTT5=
EXTT6=
EXTT7=
EXTT8=
EXTT9=
EXTT10=
EXTT11=
PLAYORDER=
